<svg width="28" height="30" viewBox="0 0 28 30" fill="none" xmlns="http://www.w3.org/2000/svg">
<path d="M11.5254 5.02587C7.53179 5.7925 4.62836 6.94551 2.09714 10.1999C0.493023 12.2624 0.844743 15.5087 1.89593 17.6951C3.62797 21.2978 7.88529 23.3322 11.7267 23.5088C16.2015 23.7145 22.4223 22.3996 23.3396 17.0628C23.8313 14.2018 21.0981 11.4969 19.8183 9.15075C18.7772 7.24209 17.2094 4.66909 15.0179 3.8617C14.1234 3.53213 12.047 3.64654 11.3961 4.5372C11.1053 4.93509 10.7311 5.35506 10.5194 5.80198C10.3478 6.16409 10.532 4.88052 10.4906 4.50846" stroke="#001D3D" stroke-linecap="round" stroke-linejoin="round"/>
<path d="M13.207 14.8566C12.1293 15.4104 10.3805 15.7776 11.3242 16.9909C11.5393 17.2674 11.8461 17.2523 12.1075 16.9909C12.331 16.7675 13.4576 15.5941 12.6249 15.3165C10.9276 14.7507 11.5482 18.1375 12.7615 16.6388C13.4131 15.8339 12.501 15.0416 11.6835 15.5321C10.7096 16.1165 11.4801 17.1369 12.2441 16.2507C12.8198 15.5829 12.3601 15.0712 11.7338 15.6974C11.1729 16.2583 11.7427 17.153 12.2944 16.3944C12.8602 15.6164 12.215 14.9575 11.5326 15.6399C10.7427 16.4298 11.5977 16.3468 12.1578 15.8267C12.7225 15.3024 11.7211 15.3798 11.3961 15.7908C10.6412 16.7455 11.8237 16.6098 12.0141 15.7908C12.2939 14.5878 11.0528 17.3518 11.6548 15.2447" stroke="#001D3D" stroke-linecap="round" stroke-linejoin="round"/>
<path d="M8.80905 10.8467C9.95801 12.3628 11.1356 13.8005 12.1003 15.3165C12.3677 15.7366 12.1543 16.1583 12.3015 16.1501C12.8459 16.1199 13.4033 16.0207 13.9831 16.0207C15.3099 16.0207 16.3549 15.374 17.6337 15.374C19.1823 15.374 21.4574 14.9719 18.8985 13.6924" stroke="#001D3D" stroke-linecap="round" stroke-linejoin="round"/>
<path d="M7.51554 4.89651C7.27396 3.67353 6.09319 0.709083 8.29165 1.02315C9.08051 1.13584 9.60976 1.95194 10.0738 2.46758C11.2812 3.80908 11.1521 5.42828 9.19711 5.54327C8.68501 5.5734 7.96399 6.58891 7.38619 5.86665C6.73196 5.04887 7.39984 5.10382 7.51554 4.1204C7.59124 3.47698 7.17141 3.53038 6.99095 2.89875C6.85251 2.41422 7.14007 1.88367 7.25684 1.53337" stroke="#001D3D" stroke-linecap="round" stroke-linejoin="round"/>
<path d="M8.29165 3.47365C8.28014 3.78262 7.80372 6.56662 8.81624 6.11099C9.15529 5.95842 9.44802 5.73663 9.58517 5.38518C9.71806 5.04464 9.57681 4.84122 9.42707 4.50847C9.04128 3.65115 7.92212 2.31865 8.26291 4.24976C8.47793 5.46821 9.83869 5.18347 9.94448 4.0198C10.0253 3.13116 8.90473 1.94062 8.19104 2.95625C7.68625 3.67461 8.58527 5.25877 9.11088 4.14916C9.37775 3.58575 8.73961 2.15351 8.06169 2.85564C7.36662 3.57553 8.41122 5.09412 9.09651 4.47972C9.77411 3.87222 9.31356 2.01903 8.5791 2.72629C7.90728 3.37322 8.91528 4.66055 9.42707 3.67487C9.99795 2.57539 8.74032 1.74694 8.34914 2.89876C7.99991 3.92705 9.08891 5.03308 9.34084 3.63175C9.53259 2.56511 7.57303 1.99799 7.57303 3.27244C7.57303 4.4465 8.62222 4.32638 8.62222 3.25807C8.62222 2.14457 7.50092 2.39522 7.96827 3.32993C8.43565 4.26469 9.06216 2.6057 8.53598 2.07953C7.92177 1.46531 7.10863 2.41492 7.83173 3.00655C8.32463 3.40983 8.99851 1.73647 8.16949 1.42558C7.45351 1.15709 7.84952 2.61873 8.09762 2.28793C8.48221 1.77515 7.89269 1.43184 8.29884 1.53338C8.65677 1.62286 9.52642 1.81408 9.77201 2.12983C9.96532 2.37837 10.7493 3.76137 10.7493 4.12041C10.7493 5.21917 9.06883 5.81153 8.10481 5.53609C7.41294 5.33842 7.20821 5.82721 7.45087 5.66545C8.03946 5.27305 8.1623 4.2496 8.1623 4.63782" stroke="#001D3D" stroke-linecap="round" stroke-linejoin="round"/>
<path d="M8.16231 23.3938C7.49629 24.8069 6.90518 26.2265 6.12142 27.5618C5.94491 27.8626 5.6142 28.4762 5.57527 28.8266C5.47042 29.7703 6.4183 26.576 6.61009 26.1102" stroke="#001D3D" stroke-linecap="round" stroke-linejoin="round"/>
<path d="M21.2268 20.6775C22.865 22.746 24.6713 24.2211 25.9481 26.4911C26.0739 26.7146 26.2918 26.8923 26.4656 27.066C27.0467 27.6471 25.3869 25.8258 24.8487 25.2048" stroke="#001D3D" stroke-linecap="round" stroke-linejoin="round"/>
</svg>
