<svg width="47" height="35" viewBox="0 0 47 35" fill="none" xmlns="http://www.w3.org/2000/svg">
<path d="M1.21875 18.6873C1.44747 19.8636 2.02891 20.6278 2.47962 21.6982C2.78649 22.427 3.36021 22.9914 3.67972 23.7065C4.02478 24.4787 4.54147 25.3859 5.02262 26.0733C5.43509 26.6625 5.70538 27.2209 6.22576 27.7412C7.14566 28.6611 7.8416 29.7573 8.76572 30.664C10.1091 31.982 12.3838 33.7016 14.3409 33.5929C14.9695 33.558 15.6657 33.7528 16.2823 33.6597C16.8113 33.5799 17.4537 33.5531 17.9837 33.6445C18.8548 33.7947 19.7999 33.6436 20.6331 33.8238C21.0828 33.921 21.5723 33.779 22.0276 33.8633C22.6179 33.9726 23.3096 34 23.9113 34C25.8804 34 27.8445 33.9881 29.8085 33.7387C30.8726 33.6036 31.927 33.9564 32.9804 33.7691C33.9692 33.5933 35.2862 33.7749 36.2162 33.3681C37.3591 32.868 38.4961 32.0816 39.379 31.1988C39.8218 30.756 40.1578 30.227 40.4575 29.6796C40.8513 28.9606 41.0705 28.1851 41.4662 27.4678C42.8464 24.9663 43.6331 22.1819 44.7506 19.5745C45.0139 18.9599 45.4469 18.4621 45.7623 17.8943C45.8421 17.7507 45.8782 17.5673 46.0084 17.4295C46.4956 16.9136 45.5623 16.8588 45.1334 16.6638" stroke="#001D3D" stroke-linecap="round" stroke-linejoin="round"/>
<path d="M1 18.7967C1.97733 17.5179 2.8064 16.5787 4.2266 15.8557C5.41589 15.2502 6.64917 14.5311 7.72361 13.7411C9.37482 12.5269 11.6471 11.9859 13.6573 11.6204C15.8453 11.2225 17.9989 10.7575 20.2259 10.7575C20.9149 10.7575 21.5968 10.965 22.2859 10.9763C23.1109 10.9898 23.9379 11.0158 24.759 11.0856C26.0192 11.1929 27.3128 11.1676 28.575 11.195C30.336 11.2333 32.0218 12.1449 33.7825 12.2857C34.8299 12.3695 36.0514 12.5262 37.0699 12.8114C37.4514 12.9182 37.8866 12.9908 38.2427 13.1638C38.6856 13.3789 38.9962 13.743 39.4033 13.9963C40.7171 14.8138 42.1858 15.1983 43.6051 15.8192C44.0401 16.0095 44.7883 16.3357 45.2701 16.3357C45.9333 16.3357 45.899 17.56 45.899 16.3357" stroke="#001D3D" stroke-linecap="round" stroke-linejoin="round"/>
<path d="M45.7896 17.1013C44.9785 18.1884 44.4004 18.6023 43.2497 19.2372C42.3463 19.7356 41.3456 20.0882 40.333 20.2733C39.3881 20.446 38.3558 20.5825 37.398 20.6591C36.6007 20.7229 35.7877 20.6302 34.9735 20.7229C33.1323 20.9327 31.2745 21.4073 29.4986 21.9261C26.9634 22.6667 24.5153 22.7442 21.897 22.8861C19.0386 23.0411 16.1725 22.8227 13.3717 22.242C12.4272 22.0462 11.4287 22.222 10.4671 22.1843C9.40813 22.1428 8.37063 21.851 7.37422 21.5068C6.95485 21.3619 6.56836 21.1391 6.12854 21.0389C5.61361 20.9216 5.09019 20.9678 4.57904 20.8445C3.86682 20.6725 3.03537 20.3614 2.43405 19.9451C2.17241 19.764 1.77955 19.6143 1.57423 19.3405C1.51433 19.2607 1.43751 19.083 1.43751 18.9881C1.43751 18.7617 1.25205 18.8189 1.54689 19.0154" stroke="#001D3D" stroke-linecap="round" stroke-linejoin="round"/>
<path d="M22.2737 28.203C22.9393 28.1291 23.8189 28.1418 23.5437 27.2855C23.4553 27.0106 23.2328 26.9813 22.9968 26.9027C22.2934 26.6682 21.0342 27.1222 20.7698 27.8567C20.2953 29.1747 21.1933 30.5981 22.6049 30.1414C22.9889 30.0172 23.6702 29.7458 23.9144 29.3971C24.2074 28.9784 23.7674 29.1021 23.4769 28.6952" stroke="#001D3D" stroke-linecap="round" stroke-linejoin="round"/>
<path d="M20.2502 26.7812C21.3112 26.3555 21.854 26.1796 22.9269 26.1796C23.3594 26.1796 23.5757 26.1491 23.9569 26.3983C24.5867 26.8101 24.8034 27.5928 24.7377 28.282C24.6823 28.8641 24.4897 29.6618 24.285 30.2144C24.1328 30.6253 23.756 30.6963 23.3705 30.7734C23.0181 30.8439 22.25 30.6468 21.9729 30.8007C21.6788 30.9641 20.7787 31.0192 20.551 30.7157C20.3416 30.4364 20.117 30.316 19.9647 29.9774C19.8192 29.654 19.7535 29.3451 19.6365 29.0234C19.4759 28.5816 19.1871 27.3752 19.7854 27.1093C20.136 26.9534 20.2862 26.8601 20.6878 26.8601C20.8017 26.8601 20.8994 26.9452 21.0159 26.9452C21.184 26.9452 20.6918 26.8358 20.5237 26.8358" stroke="#001D3D" stroke-linecap="round" stroke-linejoin="round"/>
<path d="M22.1643 22.4061C22.9357 21.4086 23.6397 20.38 24.4369 19.4104C24.8652 18.8895 25.3973 18.4414 25.8588 17.9429C27.1805 16.5155 28.5273 14.9533 29.5351 13.2853C30.5278 11.6421 31.8827 9.85271 33.3542 8.61857C34.1314 7.96668 34.826 7.24619 35.5022 6.49485C36.1583 5.76587 36.4605 4.74637 37.0821 3.97615C37.5634 3.3797 40.7142 -0.679378 41.2627 1.78863C41.4782 2.75834 40.5321 3.43674 39.938 4.03084C39.2638 4.70503 38.5864 5.56158 38.0118 6.32775C37.4578 7.06637 36.7845 7.71568 36.2465 8.46059C35.5146 9.47409 34.1827 10.199 33.6489 11.3469C33.2084 12.2938 32.4777 13.0549 31.9292 13.9324C31.1691 15.1487 30.2785 16.1644 29.3832 17.2775C28.6737 18.1596 27.5618 18.8847 27.0589 19.8904C26.6389 20.7305 25.8943 21.0846 25.2147 21.6283C24.9189 21.865 24.5594 21.9963 24.2972 22.324C24.21 22.433 24.0538 22.5591 23.9721 22.4365C23.9255 22.3665 23.7476 22.5233 23.7807 22.6005C23.8973 22.8726 23.6137 21.9462 23.5862 21.8592" stroke="#001D3D" stroke-linecap="round" stroke-linejoin="round"/>
<path d="M21.7268 22.6795C21.9364 22.7858 23.2581 23.7892 23.2581 22.9803C23.2581 22.7355 23.5726 22.3273 23.6834 22.0779C23.7673 21.8894 23.012 22.0701 22.8996 22.2147C22.7527 22.4035 22.4679 22.5569 22.93 22.5701C23.285 22.5803 23.5624 22.4276 23.8323 22.2177C23.9099 22.1574 24.9532 22.3225 24.0237 22.2967C23.5294 22.283 23.049 22.2967 22.5745 22.2967C22.1643 22.2967 22.9955 22.1873 23.1153 22.1873C23.2109 22.1873 22.4221 22.6565 22.2859 22.5033C22.2527 22.466 22.1952 22.3633 22.3284 22.2967" stroke="#001D3D" stroke-linecap="round" stroke-linejoin="round"/>
<path d="M4.33598 18.6326C4.39749 18.6652 6.35202 19.6886 6.35945 19.5623C6.36844 19.4094 6.25949 19.2761 6.33514 19.1248C6.66581 18.4635 7.0937 18.7806 7.66285 19.0367C8.10685 19.2365 7.43304 17.0241 8.7718 17.9581C9.46354 18.4407 9.64806 18.3639 9.5344 17.554C9.44833 16.9408 9.66007 16.9391 10.1876 17.0041C10.5462 17.0483 10.8032 17.1266 11.0079 16.7854C11.2563 16.3714 11.5362 16.1358 12.044 16.3144C12.465 16.4626 12.8389 16.8791 13.1286 16.3479C13.2561 16.1142 13.1485 15.4147 13.5509 15.5488C13.8032 15.6329 14.1355 15.9622 14.4229 15.8587C14.6407 15.7803 14.8081 15.1048 15.0549 15.2116C15.3123 15.3229 15.5747 15.8116 15.8995 15.6946C16.0563 15.6382 16.3472 15.1257 16.0393 15.1873" stroke="#001D3D" stroke-linecap="round" stroke-linejoin="round"/>
<path d="M12.047 17.6483C12.7249 18.1998 15.2636 21.1459 16.0089 18.9456C16.1423 18.5516 16.1636 17.771 16.5375 18.4169C16.8457 18.9493 17.3097 19.3188 17.8136 18.8149C18.1475 18.4811 18.2961 17.9143 18.7737 17.7394C19.2118 17.5789 19.5336 18.4028 19.8978 17.9217C20.1916 17.5337 20.0494 16.8665 19.6183 16.6335C19.4769 16.557 19.4374 16.8205 19.3752 16.8826" stroke="#001D3D" stroke-linecap="round" stroke-linejoin="round"/>
<path d="M17.8987 14.2575C18.9548 14.0761 20.2853 13.7068 21.0888 14.6525C21.4612 15.0909 21.426 15.6506 21.1799 16.1473C21.0001 16.5104 20.5165 16.6914 20.2077 16.3357C19.9545 16.0439 20.4767 15.5628 20.6634 15.3847C21.3035 14.7744 22.2525 15.7517 22.453 16.4147C22.6204 16.9686 21.1063 18.2519 21.2893 17.7029" stroke="#001D3D" stroke-linecap="round" stroke-linejoin="round"/>
<path d="M35.6723 16.117C35.9862 16.0091 38.0042 15.3593 37.6168 16.4329C37.418 16.9838 36.6575 17.2793 36.1584 17.4599C35.9224 17.5452 35.3128 17.5305 35.7088 17.1864C36.0516 16.8885 36.5346 16.7488 36.9848 16.7854C38.7397 16.9281 36.2856 18.944 35.7817 19.222C34.8026 19.7622 33.4706 20.3306 32.4457 19.6717" stroke="#001D3D" stroke-linecap="round" stroke-linejoin="round"/>
<path d="M24.8987 12.8904C25.315 13.5676 25.8161 14.248 26.1718 14.9594C26.2942 15.2042 25.7645 14.5774 25.6401 14.3335C25.6071 14.2689 25.3791 13.5509 25.3575 13.5557C25.0911 13.6149 25.0285 14.8345 24.9565 15.0596C24.6158 16.1244 23.7739 15.7165 22.9482 15.6369C21.9486 15.5406 21.5015 16.5266 20.949 17.156C20.507 17.6597 20.3332 17.8142 20.6331 18.4139C20.8757 18.8991 20.9765 19.3695 20.6331 19.8084C20.365 20.1509 20.0295 20.3673 19.7064 20.65C19.4104 20.909 19.8349 20.8663 19.7793 20.7108C19.6276 20.286 18.6914 20.3745 18.3848 20.3948C17.2467 20.47 16.0872 20.1846 14.9698 20.255C14.3761 20.2925 13.8173 20.6236 13.2289 20.7108C12.6313 20.7993 13.4212 21.318 13.6451 21.4673C14.0304 21.7241 12.8909 20.921 12.4724 20.7229C11.7705 20.3907 11.1221 20.1335 10.7588 19.3982C10.3946 18.6613 10.074 18.1588 9.45843 17.6178C9.24619 17.4313 9.2211 17.1476 9.32475 16.8947C9.56486 16.3089 10.0974 15.832 10.6251 15.5154" stroke="#001D3D" stroke-linecap="round" stroke-linejoin="round"/>
<path d="M24.7894 15.0779C23.4185 14.1211 22.2873 13.7091 20.6756 13.4919C20.109 13.4156 19.5047 13.0233 19.1352 12.5896C18.8074 12.2047 18.9932 12.3065 18.6066 12.8296C18.0784 13.5441 17.6863 12.9027 17.0115 13.0909C15.9773 13.3793 15.0896 14.3406 14.0401 14.5189C13.7527 14.5677 13.822 14.0868 13.4628 14.294C12.858 14.6429 12.3955 14.9731 11.6885 15.084C11.261 15.151 10.4507 15.4326 10.5157 15.9529" stroke="#001D3D" stroke-linecap="round" stroke-linejoin="round"/>
<path d="M34.0864 15.0779C35.4092 15.2054 36.7495 15.1889 38.0665 15.3301C38.5302 15.3797 38.7672 15.5671 39.0934 15.8709C39.3876 16.1448 39.8469 16.7897 40.2692 16.8249C40.878 16.8756 41.1925 16.6227 41.7609 16.4451C42.1031 16.3382 43.195 16.4451 42.8365 16.4451" stroke="#001D3D" stroke-linecap="round" stroke-linejoin="round"/>
<path d="M33.102 16.5545C31.68 17.4915 30.9204 18.9126 29.3984 19.7659C29.097 19.9348 28.1744 20.2619 28.2438 20.8171C28.2941 21.2189 31.375 19.961 31.8441 19.7264" stroke="#001D3D" stroke-linecap="round" stroke-linejoin="round"/>
<path d="M38.4067 17.867C39.1799 18.4425 39.8465 19.2651 40.813 18.9729C41.0745 18.8938 41.6217 18.863 41.7974 18.6873" stroke="#001D3D" stroke-linecap="round" stroke-linejoin="round"/>
</svg>
