<svg width="65" height="55" viewBox="0 0 65 55" fill="none" xmlns="http://www.w3.org/2000/svg">
<path d="M9.07572 30.3443C16.2406 26.9307 22.0326 21.2867 27.8567 15.9644C32.4341 11.7813 37.2345 7.64787 42.2862 4.03803C43.2829 3.32573 44.6912 1.89226 46.0386 2.50321C47.3739 3.10861 48.1437 4.75693 49.199 5.733C51.798 8.13674 54.1349 11.0741 56.2716 13.8989C58.6238 17.0084 55.0964 18.7295 52.9159 20.7654C50.439 23.078 48.0735 25.4628 45.3679 27.5035C42.7962 29.4432 40.7299 32.1166 38.3756 34.3125C34.7876 37.659 31.4317 41.2219 27.8541 44.5719C25.7244 46.566 23.2809 48.1941 21.23 50.2591C20.5114 50.9827 19.8467 51.9391 19.018 52.5416C18.3524 53.0255 17.4311 51.1646 17.1942 50.8141C15.3134 48.0323 12.3999 46.1294 10.5582 43.2197C9.40027 41.3903 8.62112 39.1326 7.23508 37.4619C6.57342 36.6643 4.91924 34.8692 5.64399 33.7041C6.38397 32.5146 8.48512 31.9447 9.6312 31.0928C10.5246 30.4287 11.6106 29.6088 12.6274 29.147C13.3664 28.8114 14.0918 28.2165 14.7527 27.7584C16.492 26.5527 14.6489 27.0681 13.4725 27.5161" stroke="#001D3D" stroke-linecap="round" stroke-linejoin="round"/>
<path d="M10.1703 35.8056C14.5321 38.5058 18.4447 42.4134 21.8497 46.2672C21.936 46.3649 22.7647 46.9424 22.6384 47.1562C22.3944 47.5689 19.5634 45.7059 19.293 45.5192" stroke="#001D3D" stroke-linecap="round" stroke-linejoin="round"/>
<path d="M14.4943 31.9018C18.0306 32.9144 20.1381 34.8412 22.9932 36.9027C24.265 37.8209 25.5604 38.6497 26.7019 39.7295C27.238 40.2365 27.6198 40.9043 28.115 41.4511C28.7939 42.2005 26.0218 40.581 25.6953 40.3945" stroke="#001D3D" stroke-linecap="round" stroke-linejoin="round"/>
<path d="M19.6326 28.8755C22.1073 31.1089 24.5949 33.3114 27.1472 35.455C28.1168 36.2694 29.2174 37.0168 30.0549 37.9759C31.5414 39.6785 29.5946 37.4692 28.9334 36.8455" stroke="#001D3D" stroke-linecap="round" stroke-linejoin="round"/>
<path d="M23.0999 26.7466C24.9354 27.8625 26.8528 28.944 28.407 30.4487C29.0445 31.066 29.5735 31.7935 30.2551 32.3654C31.0948 33.0698 31.8304 33.8916 32.6756 34.5763C33.8792 35.5513 34.0602 35.8359 32.6304 34.6122" stroke="#001D3D" stroke-linecap="round" stroke-linejoin="round"/>
<path d="M27.5699 23.4695C29.595 25.0543 31.4692 26.6637 33.1626 28.597C33.9125 29.4532 34.5169 30.4416 35.4687 31.0985C36.3407 31.7003 36.9519 31.8741 35.9311 30.8962" stroke="#001D3D" stroke-linecap="round" stroke-linejoin="round"/>
<path d="M31.873 20.1297C33.656 21.4694 35.414 22.6925 36.8382 24.4181C37.4902 25.2081 38.005 26.1161 38.7331 26.8447C40.2117 28.3243 39.1949 27.5784 38.1253 26.5742" stroke="#001D3D" stroke-linecap="round" stroke-linejoin="round"/>
<path d="M35.8419 16.6642C38.3452 19.059 40.4417 21.8638 42.9494 24.2292C44.638 25.8218 42.2187 23.2697 41.8228 22.8163" stroke="#001D3D" stroke-linecap="round" stroke-linejoin="round"/>
<path d="M40.6877 13.9094C42.7947 13.0491 44.9804 12.0236 46.1128 9.92138C46.425 9.34167 46.8273 8.83703 46.9556 8.18372C47.1319 7.28653 47.0974 7.67139 46.4324 8.252" stroke="#001D3D" stroke-linecap="round" stroke-linejoin="round"/>
<path d="M44.0802 16.8028C45.7507 15.2527 47.618 13.5595 48.8421 11.5918C49.4526 10.6103 50.6156 9.41235 48.9897 10.8319" stroke="#001D3D" stroke-linecap="round" stroke-linejoin="round"/>
<path d="M49.4356 20.0519C50.9577 18.3979 52.312 16.8597 53.7131 15.1302C54.1657 14.5714 55.5447 13.8463 53.8856 14.2897" stroke="#001D3D" stroke-linecap="round" stroke-linejoin="round"/>
<path d="M48.2247 19.2162C49.8178 17.851 51.6195 16.2615 52.882 14.5376C53.2188 14.0778 53.4778 13.5655 53.7862 13.0877C54.3028 12.2873 54.3355 12.5576 53.552 12.6398" stroke="#001D3D" stroke-linecap="round" stroke-linejoin="round"/>
<path d="M14.4713 38.5635C22.4083 35.3394 24.3667 26.589 30.8347 21.6404C31.6215 21.0384 32.2606 20.3692 33.1782 19.9525C33.7917 19.6739 34.5493 19.5405 35.1078 19.184C35.4485 18.9665 38.2773 16.8054 36.3114 17.6982" stroke="#001D3D" stroke-linecap="round" stroke-linejoin="round"/>
<path d="M10.7758 36.2235C11.6664 35.1404 12.4572 34.2134 13.5872 33.4301C13.7725 33.3017 14.0585 33.28 14.2109 33.1084C14.5128 32.7685 14.9703 32.2715 15.0867 31.8331C15.545 30.1064 17.7843 30.4256 18.9734 29.5599C20.1046 28.7362 21.1936 27.9024 22.3468 27.0887C23.6174 26.1921 24.2052 25.4059 25.2256 24.2571C26.1629 23.2018 27.0728 22.1344 28.065 21.1354C28.8766 20.3181 30.152 19.5748 30.6687 18.5288C31.2517 17.3483 32.7419 15.9972 34.0832 16.216C34.544 16.2911 37.9291 18.2527 35.7165 16.9985" stroke="#001D3D" stroke-linecap="round" stroke-linejoin="round"/>
<path d="M17.9581 40.4442C23.9224 37.298 27.2325 30.4388 31.261 25.2573C32.7448 23.3488 34.8653 22.0806 36.4185 20.2053C37.0828 19.4032 38.5499 18.5512 36.8436 18.565" stroke="#001D3D" stroke-linecap="round" stroke-linejoin="round"/>
<path d="M20.0875 42.387C25.4918 39.0645 28.9523 32.8829 32.8843 27.9842C34.6732 25.7556 36.3997 23.4803 38.2106 21.2698C39.0362 20.262 40.4756 19.6324 38.6284 20.6643" stroke="#001D3D" stroke-linecap="round" stroke-linejoin="round"/>
<path d="M22.2165 45.8543C25.5889 42.5656 28.3116 39.0168 31.0709 35.2127C32.7487 32.8996 34.1991 30.2995 36.1693 28.2168C37.2997 27.0218 38.17 25.6225 39.1963 24.3556C39.6097 23.8452 39.895 23.2506 40.3199 22.7445C41.2769 21.6045 40.6096 22.6359 39.9432 23.2543" stroke="#001D3D" stroke-linecap="round" stroke-linejoin="round"/>
<path d="M23.0095 47.2955C24.6878 45.6516 27.1467 44.0692 28.2663 41.9367C28.6728 41.1625 29.6787 39.2932 30.3841 38.8195C31.3165 38.1932 31.7609 36.8609 32.4397 36.023C33.1465 35.1504 33.8384 34.2989 34.6054 33.469C35.3246 32.6907 35.5548 31.3248 36.4452 30.655C37.437 29.9089 37.9196 28.754 38.7107 27.8633C39.3955 27.0923 40.6991 26.2934 41.5487 25.7045C42.0194 25.3782 42.3481 24.9335 42.882 24.691C43.9641 24.1996 43.2618 24.4511 42.2713 24.4141" stroke="#001D3D" stroke-linecap="round" stroke-linejoin="round"/>
<path d="M40.5517 14.5253C41.94 14.8913 43.6518 15.1427 44.9169 15.8993C45.7334 16.3875 46.4443 16.8777 44.9575 15.9886" stroke="#001D3D" stroke-linecap="round" stroke-linejoin="round"/>
<path d="M41.9934 12.2079C43.9738 12.7252 45.3735 13.3052 46.9884 14.3581C48.0443 15.0466 47.8749 14.856 46.775 14.1933" stroke="#001D3D" stroke-linecap="round" stroke-linejoin="round"/>
<path d="M44.3957 9.86978C46.0963 10.8262 47.7462 11.9131 49.5047 12.7458C50.539 13.2356 49.9962 13.2013 49.1979 12.8159" stroke="#001D3D" stroke-linecap="round" stroke-linejoin="round"/>
<path d="M45.7642 8.00113C47.5523 8.81531 49.2007 9.62613 50.8471 10.6503C51.5979 11.1174 50.9166 11.1476 50.3471 10.7697" stroke="#001D3D" stroke-linecap="round" stroke-linejoin="round"/>
<path d="M41.429 13.7112C42.7801 12.105 44.1353 10.5831 45.3653 8.9367C45.7148 8.46894 47.8433 5.86465 46.9234 7.19754" stroke="#001D3D" stroke-linecap="round" stroke-linejoin="round"/>
<path d="M42.8482 16.5309C44.606 14.9769 47.1393 12.9049 47.7066 10.5832C47.8736 9.89992 48.2358 9.21701 48.7665 8.74701C49.3047 8.27033 49.8674 8.05504 49.0635 8.85848" stroke="#001D3D" stroke-linecap="round" stroke-linejoin="round"/>
<path d="M41.4386 16.4782C43.313 14.4594 44.915 13.1026 45.9739 10.6157C46.2489 9.9698 46.5643 9.43448 47.0157 8.92624C47.4941 8.38764 48.1808 7.88325 47.257 8.84743" stroke="#001D3D" stroke-linecap="round" stroke-linejoin="round"/>
<path d="M48.4028 17.4725C49.2659 18.0197 50.1313 18.5268 51.0283 18.9822C51.3988 19.1703 50.9405 18.8063 50.783 18.7472" stroke="#001D3D" stroke-linecap="round" stroke-linejoin="round"/>
<path d="M50.0848 14.7687C50.1431 14.8183 53.5363 17.7257 52.9345 17.0773" stroke="#001D3D" stroke-linecap="round" stroke-linejoin="round"/>
<path d="M52.1003 13.7148C52.8488 14.4349 55.1411 16.5411 54.334 15.8873" stroke="#001D3D" stroke-linecap="round" stroke-linejoin="round"/>
<path d="M47.4 18.6208C48.6404 17.4656 51.3608 15.1771 52.0274 13.4015C52.29 12.7019 53.4932 11.8028 52.3617 12.7647" stroke="#001D3D" stroke-linecap="round" stroke-linejoin="round"/>
<path d="M47.5565 18.9653C47.6743 19.0596 50.0468 21.615 50.5527 20.3759C50.811 19.7435 51.1473 18.9197 51.7808 18.5711C52.8922 17.9595 53.0973 16.0333 54.235 15.5166C55.5257 14.9305 55.4051 13.9475 54.2031 13.5988C53.7309 13.4619 54.1034 12.5313 53.613 12.6044C53.164 12.6713 52.9263 12.5056 52.4244 12.5976" stroke="#001D3D" stroke-linecap="round" stroke-linejoin="round"/>
<path d="M40.3952 14.1808C41.2089 15.7357 41.3628 16.2995 42.6757 16.948C43.0301 17.123 43.4927 16.8802 43.7616 17.0168C44.2938 17.2869 45.3455 17.2926 45.7427 16.8022C46.5414 15.8162 46.8354 15.1798 48.0591 14.5801C48.8311 14.2017 49.4521 13.309 49.8093 12.5689C50.202 11.7556 50.909 11.1427 51.3235 10.3263C51.5 9.9786 50.0753 9.08319 50.0624 8.48175C50.0588 8.31121 48.3671 8.3061 48.0856 8.16321C47.7446 7.99007 47.5882 7.74603 47.4246 7.38568C47.1855 6.85933 46.7617 7.51285 46.1193 7.56275" stroke="#001D3D" stroke-linecap="round" stroke-linejoin="round"/>
<path d="M12.2175 33.9059C14.1394 34.6364 15.8154 35.5783 17.5458 36.6208C19.0481 37.5258 20.7457 38.008 22.2385 38.8852C23.3012 39.5097 24.4041 40.9355 25.1884 41.8719C25.4497 42.1839 25.6449 42.4759 25.8302 42.8275C26.2555 43.6343 25.8131 41.6839 25.768 41.4701" stroke="#001D3D" stroke-linecap="round" stroke-linejoin="round"/>
<path d="M30.7769 19.2417C31.3098 19.8013 33.468 22.8906 33.0423 20.5686" stroke="#001D3D" stroke-linecap="round" stroke-linejoin="round"/>
</svg>
