<svg width="48" height="28" viewBox="0 0 48 28" fill="none" xmlns="http://www.w3.org/2000/svg">
<path d="M8.16479 25.9052C7.43966 23.7552 7.09178 20.354 4.16141 20.7447C3.00485 20.8989 2.27427 21.2554 1.5812 22.1795C-0.790221 25.3414 4.75895 29.5335 6.33665 25.0258C8.08507 20.0303 5.54145 16.9805 4.10356 12.3793C3.14949 9.32628 5.46275 18.82 7.33171 21.4158C7.9025 22.2086 9.60412 25.0643 10.9186 24.6093C13.4605 23.7294 12.6092 17.9604 10.0392 17.3893C7.37726 16.7978 10.4193 23.2979 11.1731 24.0307C14.0023 26.7814 18.5846 20.5394 16.9121 17.5744C16.3192 16.5234 14.8972 15.8518 14.0426 17.0422C12.975 18.5292 13.9943 20.6471 15.0376 21.8208C15.7063 22.573 16.6878 20.2841 16.7732 19.9811C17.1655 18.5903 16.8561 17.6838 16.079 16.5794C15.2662 15.4244 15.9341 16.9712 16.1253 17.4124C16.6254 18.5665 17.1458 20.2076 18.4856 20.5827C20.5758 21.168 22.6 17.9346 23.0444 16.2207C23.3237 15.1435 22.1318 12.5633 20.8923 12.4256C19.6998 12.2931 19.5312 15.7038 19.7121 16.4174C19.9073 17.1872 20.2134 19.0323 21.2857 19.0323C22.7215 19.0323 23.0983 17.3654 22.9287 16.2207C22.4527 13.0077 18.4625 10.3264 18.4625 6.88332C18.4625 5.36291 20.4662 9.22842 21.0774 10.6206C21.949 12.6058 22.9678 14.426 23.9469 16.348C25.7931 19.972 26.8355 16.3336 25.9486 13.9529C24.9761 11.3424 23.0395 7.66491 21.0774 5.58743C20.7163 5.20503 22.6291 7.14228 22.9056 7.57755C24.1912 9.60169 24.8072 11.9131 25.8676 14.0339C26.7055 15.7096 29.4881 20.4643 30.3338 15.8736C30.8671 12.9786 28.3644 10.5192 28.1585 7.73954C28.0659 6.4887 28.3925 7.54515 28.7833 8.24864C29.683 9.868 30.3205 11.6434 31.1784 13.2934C31.5459 14 32.0776 14.5975 32.6247 15.1446C33.3582 15.8781 31.9786 13.1702 31.7454 12.1595C31.4874 11.0415 32.7234 5.8847 34.3603 8.45691C35.311 9.95089 35.3731 13.9716 37.1025 10.2966C37.4256 9.61 37.5558 3.57348 36.0264 4.08327C34.2734 4.66763 37.6748 10.6669 38.7687 11.4189C41.9671 13.6179 42.0454 5.97615 41.9042 4.84692C41.8219 4.18847 41.645 1.13077 40.6431 1.00553C39.1924 0.824193 40.2626 5.15898 40.4926 5.61057C41.6064 7.79675 44.6346 3.86002 46.0696 4.37253C47.9404 5.04066 47.1205 9.11046 46.0696 10.285C44.0575 12.5339 43.9266 7.40238 44.1952 6.32794" stroke="#001D3D" stroke-linecap="round" stroke-linejoin="round"/>
<path d="M25.6593 5.70308C26.6426 5.6791 27.813 5.90679 28.1586 4.87001" stroke="#001D3D" stroke-linecap="round" stroke-linejoin="round"/>
</svg>
