<svg width="23" height="26" viewBox="0 0 23 26" fill="none" xmlns="http://www.w3.org/2000/svg">
<path d="M17.232 3.32057C17.5614 2.32106 17.7435 1.62988 18.6935 1.14945C19.0449 0.971714 19.301 0.889464 19.4944 1.26889C19.7537 1.77735 19.6501 2.46029 19.5577 3.00439C19.3424 4.27246 19.3772 5.59498 19.2064 6.87588C19.0771 7.84538 18.7164 11.0454 20.0144 11.4781C20.52 11.6466 21.582 10.9157 21.518 10.3399C21.4888 10.0767 21.3698 8.90854 20.8365 9.27888C19.9089 9.92306 21.0741 11.797 21.4056 12.5672C22.106 14.1947 22.645 16.7276 22.4666 18.5114C22.375 19.4276 21.9055 20.1101 21.3283 20.7739C20.9502 21.2087 20.4383 22.5311 19.6069 22.123C18.7943 21.7241 18.0409 20.5857 18.1946 19.6638C18.2886 19.0994 18.5293 19.8403 18.1805 19.0033" stroke="#001D3D" stroke-linecap="round" stroke-linejoin="round"/>
<path d="M6.98762 4.39555C6.67744 3.66353 6.56149 3.05515 5.8072 2.80058C5.37843 2.65587 4.98938 2.54526 4.53544 2.5125C3.53172 2.44007 2.67453 3.24729 2.94047 4.26908C3.36176 5.8877 4.12266 7.21108 4.14197 8.9486C4.15299 9.94081 4.16309 10.9444 3.96631 11.9207C3.78663 12.8122 3.70931 14.1619 3.03884 14.8577C2.65374 15.2573 1.94813 15.9292 1.3455 15.7149C0.777201 15.5129 1.01954 14.7433 1.29632 14.3589C1.83956 13.6044 2.60736 15.4005 2.68753 15.8414C2.9501 17.2856 3.16905 18.7757 3.348 20.2328C3.47934 21.3024 3.49188 22.4388 3.98388 23.4228C4.31323 24.0815 4.93894 25.3009 5.83882 25.2215C6.33782 25.1775 7.11984 24.7138 7.26516 24.2132C7.48439 23.4581 7.19181 23.3529 6.73468 22.9872" stroke="#001D3D" stroke-linecap="round" stroke-linejoin="round"/>
</svg>
